<svg width="28" height="27" viewBox="0 0 28 27" fill="none" xmlns="http://www.w3.org/2000/svg">
<path d="M23.5767 17.0502C21.3794 13.8373 19.0102 10.3118 13.4713 11.7959C11.0025 12.4575 9.35923 13.7306 8.4477 15.6883C7.64029 17.4223 7.49518 19.4591 7.34696 21.399C7.16312 23.777 9.63547 25.4664 11.7937 24.4196C13.5643 23.5604 15.9661 22.2685 19.8194 21.9914C21.3044 21.8846 21.4472 21.8926 21.8312 21.7897C23.837 21.2522 24.8075 18.8464 23.5767 17.0502Z" fill="#FBDD7B"/>
<path d="M21.8313 21.7897C23.8371 21.2522 24.8076 18.8463 23.5768 17.0502C21.3795 13.8373 19.0103 10.3118 13.4714 11.7959L16.359 22.5725C19.1334 21.8291 20.9283 22.0317 21.8313 21.7897Z" fill="#FECB3E"/>
<path d="M16.5662 16.4037L15.4815 16.6943L15.1908 15.6096C15.0945 15.2501 14.725 15.0368 14.3655 15.1331C14.0061 15.2294 13.7927 15.5989 13.8891 15.9584L14.1797 17.0431L13.0949 17.3338C12.7355 17.4301 12.5222 17.7996 12.6185 18.1591C12.7148 18.5185 13.0843 18.7319 13.4437 18.6355L14.5285 18.3449L14.8192 19.4297C14.9155 19.7891 15.285 20.0024 15.6444 19.9061C16.0039 19.8098 16.2172 19.4403 16.1209 19.0809L15.8303 17.9961L16.915 17.7054C17.2745 17.6091 17.4878 17.2396 17.3915 16.8801C17.2952 16.5207 16.9257 16.3074 16.5662 16.4037Z" fill="#FFF8E0"/>
<path d="M16.1209 19.0809L15.8302 17.9961L16.915 17.7054C17.2744 17.6091 17.4878 17.2396 17.3915 16.8801C17.2951 16.5207 16.9256 16.3074 16.5662 16.4037L15.4814 16.6943L15.1907 15.6096C15.0944 15.2501 14.7249 15.0368 14.3655 15.1331L15.6444 19.9061C16.0039 19.8098 16.2172 19.4403 16.1209 19.0809Z" fill="#FFE799"/>
<path d="M21.2764 6.21228C19.9605 6.56488 19.1768 7.92234 19.5294 9.23826C19.882 10.5542 21.2394 11.3379 22.5553 10.9853C23.8713 10.6327 24.6984 9.26363 24.3458 7.9477C23.9932 6.63178 22.5923 5.85968 21.2764 6.21228Z" fill="#FECB3E"/>
<path d="M16.4203 8.91634C17.9321 8.51124 18.7456 6.64494 18.2373 4.74783C17.729 2.85072 16.0913 1.6412 14.5795 2.0463C13.0676 2.45139 12.2541 4.3177 12.7625 6.21481C13.2708 8.11192 14.9084 9.32143 16.4203 8.91634Z" fill="#FECB3E"/>
<path d="M9.47766 10.7766C10.9895 10.3715 11.803 8.5052 11.2947 6.60809C10.7863 4.71098 9.14867 3.50146 7.63683 3.90656C6.125 4.31165 5.3115 6.17796 5.81983 8.07507C6.32815 9.97218 7.96582 11.1817 9.47766 10.7766Z" fill="#FBDD7B"/>
<path d="M3.92014 10.8629C2.60422 11.2155 1.7771 12.5846 2.1297 13.9006C2.4823 15.2165 3.88315 15.9886 5.19907 15.636C6.515 15.2834 7.29872 13.9259 6.94612 12.61C6.59352 11.2941 5.23607 10.5103 3.92014 10.8629Z" fill="#FBDD7B"/>
</svg>
